Coordinates
version=1
nRows=27
nColumns=38
inDegrees=no

Units are S.I. units (second, meters, Newtons, ...)
If the header above contains a line with 'inDegrees', this indicates whether rotational values are in degrees (yes) or radians (no).

endheader
time	pelvis_tilt	pelvis_list	pelvis_rotation	pelvis_tx	pelvis_ty	pelvis_tz	hip_flexion_r	hip_adduction_r	hip_rotation_r	knee_angle_r	ankle_angle_r	subtalar_angle_r	mtp_angle_r	hip_flexion_l	hip_adduction_l	hip_rotation_l	knee_angle_l	ankle_angle_l	subtalar_angle_l	mtp_angle_l	lumbar_extension	lumbar_bending	lumbar_rotation	arm_flex_r	arm_add_r	arm_rot_r	elbow_flex_r	pro_sup_r	wrist_flex_r	wrist_dev_r	arm_flex_l	arm_add_l	arm_rot_l	elbow_flex_l	pro_sup_l	wrist_flex_l	wrist_dev_l
15	1.34211	1.45921	0.336439	0.818679	-0.676383	0.97392	0.182188	0.0830572	-0.387764	0.246987	0.00952544	0	0	-0.0338582	-0.08793	-0.130885	0.078492	0.0989898	0	0	-0.0477662	0.137861	-0.132687	0.500433	-0.229482	0.100008	1.30416	1.5708	0	0	0.599672	-0.10035	0.163849	1.19867	0.877652	0	0
15.01	1.35258	1.45807	0.328701	0.817276	-0.680032	0.973668	0.185699	0.0816234	-0.391106	0.248116	0.00673972	0	0	-0.0328924	-0.0870181	-0.12775	0.0730467	0.0967446	0	0	-0.0503907	0.13939	-0.135602	0.501413	-0.230584	0.0983815	1.3061	1.5708	0	0	0.602981	-0.101794	0.170195	1.19872	0.875093	0	0
15.02	1.35687	1.45676	0.326652	0.815967	-0.683732	0.973342	0.190608	0.0800426	-0.394153	0.250467	0.0045473	0	0	-0.0309192	-0.086097	-0.124942	0.0682093	0.0946135	0	0	-0.0524351	0.140657	-0.138113	0.501204	-0.231539	0.0938972	1.31012	1.5708	0	0	0.605892	-0.103175	0.176093	1.20013	0.873042	0	0
15.03	1.35785	1.45545	0.327537	0.814725	-0.687491	0.972988	0.196501	0.0781304	-0.397006	0.25384	0.00254734	0	0	-0.0284036	-0.0850781	-0.121896	0.0637285	0.0922543	0	0	-0.0541742	0.141701	-0.140493	0.501219	-0.232608	0.0900958	1.31358	1.5708	0	0	0.608484	-0.104229	0.180826	1.202	0.871511	0	0
15.04	1.36028	1.45477	0.326602	0.813522	-0.691313	0.972665	0.202521	0.0756287	-0.399491	0.258029	0.000822043	0	0	-0.0261127	-0.0835645	-0.118881	0.0594955	0.0899263	0	0	-0.056192	0.142006	-0.142371	0.501957	-0.234066	0.0880185	1.31515	1.5708	0	0	0.611237	-0.104544	0.185037	1.20277	0.871233	0	0
15.05	1.36439	1.45482	0.323301	0.812371	-0.695145	0.972403	0.208427	0.0726717	-0.401089	0.262809	-0.000778285	0	0	-0.0242032	-0.0815712	-0.117207	0.0556533	0.0878359	0	0	-0.0588478	0.141599	-0.143634	0.503517	-0.235131	0.087003	1.31515	1.5708	0	0	0.613723	-0.104488	0.188725	1.20377	0.872961	0	0
15.06	1.36355	1.45563	0.323669	0.811334	-0.698989	0.972184	0.215213	0.0689746	-0.401056	0.268637	-0.00225414	0	0	-0.0219205	-0.0788086	-0.116994	0.0524021	0.0856959	0	0	-0.0614583	0.140211	-0.143994	0.505374	-0.235895	0.086648	1.31461	1.5708	0	0	0.615948	-0.104187	0.191062	1.20502	0.8756	0	0
15.07	1.35654	1.45685	0.329147	0.810415	-0.702812	0.971994	0.223011	0.0647405	-0.399612	0.275299	-0.00390079	0	0	-0.0187819	-0.0756525	-0.117768	0.0500325	0.083052	0	0	-0.0635404	0.138054	-0.143634	0.506123	-0.236449	0.0838018	1.3158	1.5708	0	0	0.617654	-0.103919	0.192506	1.20665	0.877458	0	0
15.08	1.28818	1.46745	0.396785	0.809864	-0.706328	0.970657	0.230056	0.0532689	-0.388721	0.270666	-0.00514807	0	0	-0.012454	-0.0608474	-0.116335	0.0481639	0.0807038	0	0	-0.0604912	0.121396	-0.144729	0.504156	-0.234321	0.0794215	1.31712	1.5708	0	0	0.619501	-0.107027	0.198162	1.21074	0.877971	0	0
15.09	1.33597	1.46044	0.346292	0.808504	-0.710739	0.971699	0.24022	0.0541044	-0.395469	0.291034	-0.00678434	0	0	-0.0105689	-0.0679617	-0.116909	0.0478402	0.0763228	0	0	-0.0679931	0.132782	-0.142968	0.509975	-0.237441	0.0810845	1.31549	1.5708	0	0	0.620665	-0.102126	0.192828	1.21054	0.880641	0	0
15.1	1.31909	1.46249	0.359746	0.807735	-0.71466	0.971556	0.250159	0.048315	-0.392614	0.300664	-0.0077484	0	0	-0.00588563	-0.063692	-0.117092	0.0473277	0.0731076	0	0	-0.0696178	0.129714	-0.14138	0.513005	-0.23792	0.0821192	1.31388	1.5708	0	0	0.621105	-0.100911	0.19088	1.2134	0.88251	0	0
15.11	1.30005	1.46439	0.374582	0.807083	-0.718565	0.971403	0.260541	0.0428758	-0.389086	0.31052	-0.00832457	0	0	-0.000542857	-0.0596298	-0.118025	0.0479143	0.0703183	0	0	-0.0710782	0.126618	-0.139089	0.515219	-0.238425	0.0808003	1.31428	1.5708	0	0	0.621541	-0.100124	0.189893	1.21668	0.884159	0	0
15.12	1.27593	1.46622	0.393152	0.806589	-0.722377	0.971219	0.271651	0.0376456	-0.384483	0.320967	-0.00725136	0	0	0.00549867	-0.0556076	-0.120752	0.0493807	0.0680307	0	0	-0.0718994	0.123345	-0.135616	0.517584	-0.239321	0.0803852	1.31393	1.5708	0	0	0.621694	-0.0990609	0.188372	1.21969	0.886151	0	0
15.13	1.24964	1.46783	0.412759	0.806249	-0.726046	0.970998	0.282963	0.0328026	-0.379516	0.331666	-0.00522037	0	0	0.0117879	-0.0518455	-0.125128	0.0512591	0.0661006	0	0	-0.0722167	0.120175	-0.131036	0.520254	-0.240867	0.0819566	1.31276	1.5708	0	0	0.621213	-0.0978371	0.185971	1.22327	0.888771	0	0
15.14	1.22451	1.45759	0.424135	0.805914	-0.730928	0.971542	0.297363	0.0397743	-0.385753	0.333056	-0.0158701	0	0	0.0246703	-0.0596393	-0.134128	0.0551828	0.0635203	0	0	-0.0719469	0.132076	-0.119201	0.528747	-0.24706	0.0900147	1.30869	1.5708	0	0	0.620197	-0.0916443	0.175749	1.2245	0.89157	0	0
15.15	1.22351	1.4589	0.41827	0.805582	-0.73457	0.971367	0.30553	0.0363191	-0.381698	0.343379	-0.0117841	0	0	0.0276483	-0.0573989	-0.137165	0.0557732	0.06132	0	0	-0.0750901	0.132262	-0.11387	0.547237	-0.254998	0.147019	1.33278	1.5708	0	0	0.619727	-0.0905337	0.172779	1.22924	0.89325	0	0
15.16	1.21116	1.4603	0.424265	0.805526	-0.737963	0.971377	0.313593	0.0328473	-0.377948	0.351658	-0.00743925	0	0	0.0317426	-0.055086	-0.14003	0.0567672	0.0582091	0	0	-0.0761169	0.128556	-0.109149	0.538046	-0.254456	0.103096	1.30097	1.5708	0	0	0.61923	-0.0895484	0.171748	1.23311	0.894031	0	0
15.17	1.19644	1.46246	0.431071	0.805578	-0.741208	0.971321	0.321794	0.0285965	-0.373706	0.361496	-0.000436582	0	0	0.0351213	-0.0519588	-0.145143	0.0570528	0.0554734	0	0	-0.0769613	0.125662	-0.103311	0.541055	-0.258753	0.107402	1.29835	1.5708	0	0	0.617154	-0.0892003	0.169411	1.23874	0.895108	0	0
15.18	1.19985	1.46427	0.42101	0.805588	-0.744368	0.971384	0.327108	0.0254664	-0.371211	0.369948	0.00705356	0	0	0.0368786	-0.0501805	-0.148647	0.0574291	0.0534333	0	0	-0.079402	0.124299	-0.0987313	0.545473	-0.26443	0.115941	1.29473	1.5708	0	0	0.615001	-0.0890709	0.166969	1.24486	0.895023	0	0
15.19	1.18243	1.47604	0.433501	0.805875	-0.746871	0.97067	0.328556	0.00751915	-0.378733	0.381784	0.0256717	0	0	0.0350851	-0.037782	-0.151493	0.056473	0.0515264	0	0	-0.0785356	0.108788	-0.0861797	0.539344	-0.273149	0.111736	1.29379	1.5708	0	0	0.637073	-0.13194	0.419434	1.14059	1.5708	0	0
15.2	1.2251	1.46808	0.381066	0.805802	-0.750347	0.971619	0.334796	0.0210878	-0.361788	0.388498	0.0222332	0	0	0.0379429	-0.0475607	-0.158153	0.0583999	0.0489936	0	0	-0.0855416	0.122177	-0.0868524	0.555394	-0.27552	0.132515	1.28291	1.5708	0	0	0.610311	-0.0872749	0.166664	1.25637	0.947446	0	0
15.21	1.23325	1.47728	0.369179	0.805668	-0.752722	0.97089	0.333916	0.00605635	-0.368638	0.400509	0.0394415	0	0	0.0352596	-0.0381049	-0.159291	0.0576325	0.048753	0	0	-0.0904897	0.111438	-0.0767527	0.551595	-0.27066	0.106222	1.28361	1.5708	0	0	0.614339	-0.083105	0.175297	1.2608	0.940955	0	0
15.22	1.25939	1.47114	0.334711	0.806005	-0.756126	0.971948	0.340569	0.0169688	-0.352352	0.411357	0.0378178	0	0	0.0390091	-0.0459859	-0.16402	0.0600772	0.0453788	0	0	-0.091267	0.121399	-0.0769133	0.564907	-0.286443	0.146622	1.27135	1.5708	0	0	0.605815	-0.0848131	0.162658	1.27034	0.925062	0	0
15.23	1.27991	1.47216	0.309314	0.806069	-0.7589	0.972173	0.342562	0.0146598	-0.349329	0.424688	0.0448702	0	0	0.039723	-0.0458812	-0.166136	0.0615676	0.0438361	0	0	-0.0937694	0.1218	-0.0728799	0.568973	-0.291913	0.152684	1.26682	1.5708	0	0	0.602759	-0.0827804	0.15984	1.2785	0.915505	0	0
15.24	1.30122	1.47325	0.283155	0.806182	-0.761548	0.972439	0.343874	0.0118791	-0.346633	0.439155	0.0516181	0	0	0.0401924	-0.0458319	-0.168772	0.0630435	0.0424121	0	0	-0.0957777	0.122159	-0.0690674	0.572578	-0.296802	0.158153	1.26289	1.5708	0	0	0.599293	-0.0802303	0.15642	1.28625	0.908561	0	0
15.25	1.30101	1.4831	0.281531	0.806407	-0.763454	0.971941	0.341595	-0.00477978	-0.35304	0.453812	0.066672	0	0	0.0391771	-0.036025	-0.169528	0.0634195	0.0426293	0	0	-0.0950302	0.110826	-0.0686753	0.572256	-0.29921	0.160066	1.26066	1.5708	0	0	0.596192	-0.0801266	0.157935	1.29421	0.905627	0	0
15.26	1.32803	1.48412	0.250803	0.806546	-0.765893	0.972268	0.341325	-0.00780259	-0.349641	0.469115	0.0719842	0	0	0.0396176	-0.036339	-0.172027	0.0658082	0.0435447	0	0	-0.0965591	0.110965	-0.0658234	0.574578	-0.302478	0.162385	1.2574	1.5708	0	0	0.593179	-0.0760324	0.154641	1.29917	0.90339	0	0
